# xmcd
#
# Track frame offsets: 
#        150
#        19185
#        36150
#        52565
#        71775
#        88415
#        113465
#        130325
#        146570
#        160520
#        174665
#        195277
#
# Disc length: 2800 seconds
#
# Revision: 2
# Processed by: cddbd v1.5.2PL0 Copyright (c) Steve Scherf et al.
# Submitted via: ExactAudioCopy v0.99pb5
#
DISCID=980aee0c
DTITLE=W.C. Clark - Heart Of Gold
DYEAR=2009
DGENRE=Blues
TTITLE0=Heart Of Gold
TTITLE1=I Want To Shout About It
TTITLE2=Where There's Smoke There's Fire
TTITLE3=Cold Shot
TTITLE4=Come Back
TTITLE5=Let's Straighten It Out
TTITLE6=Don't Make Me Pay For His Mistakes
TTITLE7=You've Got To Love Me
TTITLE8=Make My Guitar Talk, Talk, Talk, To You
TTITLE9=I Want To Get Married
TTITLE10=All I Can See Is You
TTITLE11=The Blues Is At Hand
EXTD=
EXTT0=4:19\n
EXTT1=3:35\n
EXTT2=3:48\n
EXTT3=4:15\n
EXTT4=3:34\n
EXTT5=5:30\n
EXTT6=3:41\n
EXTT7=3:47\n
EXTT8=3:30\n
EXTT9=3:02\n
EXTT10=4:25\n
EXTT11=3:32\n
PLAYORDER=
